<svg xmlns="http://www.w3.org/2000/svg" version="1.1" xmlns:xlink="http://www.w3.org/1999/xlink" xmlns:svgjs="http://svgjs.dev/svgjs" style="overflow: hidden; height: 85vh;" viewBox="0 0 3840 2160" class="overflow-hidden rounded-md drop-shadow-lg transition duration-300"><rect width="3840" height="2160" fill="#b9995d"/><g clip-path="url(&quot;#SvgjsClipPath2543&quot;)"><g transform="matrix(1.0422539550921472,0.48601100100180433,-0.48601100100180433,1.0422539550921472,445.0360550478249,-964.1473399692509)"><path d="M0,-2160C-6.46878829782797,-2039.6668342414291,-29.366363364775886,-1694.9319109805674,-38.81272978696782,-1438.001005448574C-48.25909620915976,-1181.0700999165806,-68.28236678797977,-912.0898322956705,-56.6781985331516,-618.4145668080401C-45.07403027832344,-324.7393013204099,5.113729191579399,29.711632105012143,30.812279742001152,324.0505874772077C56.51083029242291,618.3895428494034,105.76647708143277,865.9779755269225,97.51310476937891,1147.6191654251331C89.25973245732506,1429.260355323344,-15.38387596472802,1751.5264786082075,-18.70795413032201,2013.8977268664717C-22.032032295915997,2276.268975124736,59.99761305113614,2464.5294822256037,77.56863577581498,2721.8466549747186C95.13965850049382,2979.1638277238335,99.64628818038686,3291.4418725236137,86.71818221775104,3557.8007633611605C73.79007625511521,3824.1596541987074,14.453030369625173,4192.966793893527,0,4320L 3840 4320 L 3840 -2160 Z" fill="url(&quot;#SvgjsLinearGradient2537&quot;)"/><path d="M640,-2160C626.3734624190975,-1923.1678024309656,579.3006458727843,-1163.0107919017337,558.2407745145847,-739.0068145857936C537.180903156385,-315.0028372698535,484.31802022863707,-30.15021604793054,513.6407718508023,384.02386389564015C542.9635234729674,798.1979438392109,693.4771415147509,1322.7364783792564,734.1772842475757,1746.0376650756307C774.8774269804005,2169.338851772005,773.5378422890134,2494.8372615864914,757.8416282477508,2923.830984073886C742.1454142064882,3352.824706561281,659.6402713746252,4087.3051640123144,640,4320L 3840 4320 L 3840 -2160 Z" fill="url(&quot;#SvgjsLinearGradient2538&quot;)"/><path d="M1280,-2160C1260.8854159105947,-1996.3886034173079,1166.7163305159804,-1551.9437302213748,1165.3124954635687,-1178.3316205038475C1163.908660411157,-804.7195107863201,1266.2451446322254,-276.9548398684611,1271.576989685529,81.67265830516351C1276.9088347388326,440.3001564787881,1189.9282947054398,620.0778544273007,1197.3035657833898,973.4333685379C1204.6788368613397,1326.7888826484993,1304.964583018346,1837.7507094911336,1315.8286161532285,2201.8057429687597C1326.692649288111,2565.860776446386,1268.4592006182224,2804.731193231783,1262.4877645926845,3157.763569403656C1256.5163285671465,3510.7959455755295,1277.0812940987807,4126.293928233943,1280,4320L 3840 4320 L 3840 -2160 Z" fill="url(&quot;#SvgjsLinearGradient2539&quot;)"/><path d="M1920,-2160C1936.4772274849706,-1934.5143554542228,2017.3478596712725,-1260.2259053135033,2018.8633649098242,-807.0861327253368C2020.3788701483759,-353.9463601371703,1925.038055441965,140.3729591023261,1929.0930314313105,558.8386355289989C1933.1480074206559,977.3043119556717,2065.0505692577335,1301.2614243383564,2043.1932208458961,1703.7079258346998C2021.3358724340587,2106.1544273310433,1818.4811444346026,2537.46896547951,1797.9489409602866,2973.51764450706C1777.4167374859705,3409.56632353461,1899.6581568267145,4095.58627408451,1920,4320L 3840 4320 L 3840 -2160 Z" fill="url(&quot;#SvgjsLinearGradient2540&quot;)"/><path d="M2560,-2160C2549.10771542242,-1941.4050967931285,2490.0788284276223,-1271.3012858159325,2494.6462925345186,-848.4305807587707C2499.213756641415,-425.5598757016089,2568.4349124150754,-65.99553702643806,2587.4047846413773,377.2242303429708C2606.3746568676793,820.4439977123798,2632.945508513735,1371.5185143075437,2608.4655258923303,1810.8880234576827C2583.9855432709255,2250.2575326078218,2448.60247656167,2595.255955820086,2440.524888912948,3013.4412852438054C2432.447301264226,3431.626614667525,2540.0874814854915,4102.240214207301,2560,4320L 3840 4320 L 3840 -2160 Z" fill="url(&quot;#SvgjsLinearGradient2541&quot;)"/><path d="M3200,-2160C3198.942246282433,-2014.9766596601487,3212.4759444404317,-1551.0600266781867,3193.6534776945978,-1289.8599579608922C3174.831010948764,-1028.6598892435977,3095.0058066986826,-871.8749593246926,3087.0651995249978,-592.799587696233C3079.124592351313,-313.7242160677733,3130.040241593834,93.08758422499267,3146.009834652489,384.5922718098657C3161.9794277111446,676.0969593947386,3191.5998563711337,885.4288628621696,3182.882757876931,1156.2285378130052C3174.1656593827283,1427.0282127638409,3078.8703729211097,1735.7309095574292,3093.707243687272,2009.3903215148794C3108.544114453434,2283.0497334723295,3262.4289814261656,2558.0115684992084,3271.9039824739034,2798.185009557707C3281.378983521641,3038.3584506162056,3162.5412470526835,3196.795136125489,3150.5572499736995,3450.4309678658715C3138.5732528947156,3704.066799606254,3191.7595416622835,4175.071827977646,3200,4320L 3840 4320 L 3840 -2160 Z" fill="url(&quot;#SvgjsLinearGradient2542&quot;)"/></g></g><defs><linearGradient x1="0.1" y1="0" x2="0" y2="1" id="SvgjsLinearGradient2537"><stop stop-color="#b9995d" offset="0"/><stop stop-color="#b98a5d" offset="0"/></linearGradient><linearGradient x1="0.1" y1="0" x2="0" y2="1" id="SvgjsLinearGradient2538"><stop stop-color="#c3a874" offset="0"/><stop stop-color="#c39b74" offset="0.16666666666666666"/></linearGradient><linearGradient x1="0.1" y1="0" x2="0" y2="1" id="SvgjsLinearGradient2539"><stop stop-color="#cdb68b" offset="0"/><stop stop-color="#cdab8b" offset="0.3333333333333333"/></linearGradient><linearGradient x1="0.1" y1="0" x2="0" y2="1" id="SvgjsLinearGradient2540"><stop stop-color="#d7c5a2" offset="0"/><stop stop-color="#d7bca2" offset="0.5"/></linearGradient><linearGradient x1="0.1" y1="0" x2="0" y2="1" id="SvgjsLinearGradient2541"><stop stop-color="#e1d3b9" offset="0"/><stop stop-color="#e1ccb9" offset="0.6666666666666666"/></linearGradient><linearGradient x1="0.1" y1="0" x2="0" y2="1" id="SvgjsLinearGradient2542"><stop stop-color="#ebe2d1" offset="0"/><stop stop-color="#ebded1" offset="0.8333333333333334"/></linearGradient><clipPath id="SvgjsClipPath2543"><rect width="3840" height="2160"/></clipPath></defs></svg>