<svg xmlns="http://www.w3.org/2000/svg" version="1.1" xmlns:xlink="http://www.w3.org/1999/xlink" xmlns:svgjs="http://svgjs.dev/svgjs" style="overflow: hidden; height: 85vh;" viewBox="0 0 3840 2160" class="overflow-hidden rounded-md drop-shadow-lg transition duration-300"><rect width="3840" height="2160" fill="#4d3a19"></rect><g clip-path="url(&quot;#SvgjsClipPath2264&quot;)"><g transform="matrix(0.7842981140718732,0.841056756862046,-0.841056756862046,0.7842981140718732,1314.6153568701184,-1351.1706386405085)"><path d="M0,-2160C2.503055027798337,-1947.7841885013886,27.13509723057264,-1309.744477045988,15.018330166790022,-886.7051310083314C2.901563103007403,-463.66578497067457,-78.58419547184289,-71.0457567275156,-72.70060238269572,378.23607622594085C-66.81700929354855,827.5179091793973,34.96823119468029,1365.9438616637246,50.319888701672994,1808.9858667124072C65.67154620866569,2252.0278717610895,27.79599077620599,2617.9857509701037,19.40934265926049,3036.4881065180357C11.022694542314989,3454.9904620659677,3.2348904432100816,4106.081351086339,0,4320L 3840 4320 L 3840 -2160 Z" fill="url(&quot;#SvgjsLinearGradient2252&quot;)"></path><path d="M320,-2160C326.3990341808351,-1999.4019047958175,343.7674250744542,-1514.5350090358818,358.3942050850105,-1196.4114287749048C373.02098509556686,-878.2878485139279,418.8204211434644,-560.4087723319661,407.760680063338,-251.25851843413867C396.7009389832116,57.891735463688775,302.179787861764,353.1287812869345,292.03575860425195,658.4900946120597C281.8917293467399,963.8514079371848,339.8110509143932,1287.6663338435933,346.8965045182657,1580.9093615166123C353.9819581221382,1874.1523891896313,331.5587922522904,2121.9796847939506,334.5484802274871,2417.9482606501742C337.53816820268383,2713.916836506398,367.2593790740273,3039.7121934289835,364.8346323694461,3356.7208166539544C362.40988566486493,3673.7294398789254,327.472438728241,4159.4534694423255,320,4320L 3840 4320 L 3840 -2160 Z" fill="url(&quot;#SvgjsLinearGradient2253&quot;)"></path><path d="M640,-2160C634.5627545048783,-1896.0987499315886,618.4040162270675,-1121.395448912641,607.37652702927,-576.5924995895316C596.3490378314726,-31.78955026642211,555.8654428484912,556.6955353760815,573.8350648132155,1108.817695938657C591.8046867779398,1660.9398565012325,704.1667696198185,2200.943413109031,715.194258817616,2736.1404637859214C726.2217480154134,3271.3375144628117,652.5323764696027,4056.0234106309867,640,4320L 3840 4320 L 3840 -2160 Z" fill="url(&quot;#SvgjsLinearGradient2254&quot;)"></path><path d="M960,-2160C961.3122841111779,-2010.9866645728569,956.0805528687688,-1567.7280920498804,967.8737046670672,-1265.9199874371411C979.6668564653655,-964.1118828244018,1016.0931542216406,-663.6289017712071,1030.75891078979,-349.1513723235645C1045.4246673579394,-34.67384287592188,1053.8159032628716,315.90168917173753,1055.8682440759635,620.9451892487147C1057.9205848890554,925.9886893256918,1063.8390760016366,1173.5744412068245,1043.0729556683414,1481.1096281382981C1022.3068353350461,1788.6448150697718,942.620467170605,2153.5353970344604,931.2715220761918,2466.1563108375567C919.9225769817785,2778.777224640653,970.1912054478936,3047.8611627631344,974.9792851018616,3356.835110956875C979.7673647558296,3665.809059150615,962.496547516977,4159.472518492812,960,4320L 3840 4320 L 3840 -2160 Z" fill="url(&quot;#SvgjsLinearGradient2255&quot;)"></path><path d="M1280,-2160C1274.3590016828043,-2004.7153780630558,1258.3237559156364,-1545.4503409097892,1246.1540100968255,-1228.292268378335C1233.9842642780145,-911.1341958468806,1199.9945940141406,-550.095636288941,1206.9815250871343,-257.0515648112745C1213.968456160128,35.99250666639199,1280.4689640131128,219.94269323763808,1288.075596534788,529.9721604876639C1295.6822290564633,840.0016277376898,1263.2587521647952,1279.2970836642764,1252.6213202171857,1603.1252386888805C1241.9838882695763,1926.9533937134845,1204.7423490205792,2185.2988101411656,1224.2510048491313,2472.9410906352887C1243.7596606776833,2760.5833711294117,1360.3817559966865,3021.1357700928324,1369.673255188498,3328.978921653618C1378.9647543803094,3636.822073214403,1294.9455425314163,4154.829820275603,1280,4320L 3840 4320 L 3840 -2160 Z" fill="url(&quot;#SvgjsLinearGradient2256&quot;)"></path><path d="M1600,-2160C1594.854349993661,-1949.7498016752154,1554.872774467988,-1333.0427564175209,1569.1260999619647,-898.4988100512926C1583.3794254559414,-463.9548636850643,1678.5194774870665,17.374634418570054,1685.5199529638599,447.2636781973698C1692.5204284406532,877.1527219761696,1609.501906125771,1253.7407500436598,1611.128952822724,1680.835452621506C1612.7559995196768,2107.930155199352,1697.1370586160315,2569.9711357680308,1695.2822331455775,3009.8318936644464C1693.4274076751235,3449.692651560862,1615.8803721909296,4101.638648944075,1600,4320L 3840 4320 L 3840 -2160 Z" fill="url(&quot;#SvgjsLinearGradient2257&quot;)"></path><path d="M1920,-2160C1912.063122889558,-1955.2611927258133,1861.4240274558292,-1351.6832921441203,1872.3787373373477,-931.5671563548804C1883.3334472188662,-511.4510205656405,1974.9194828403563,-70.72917615066592,1985.7282592891108,360.69681473543926C1996.5370357378654,792.1228056215444,1958.0446686939624,1216.480058067437,1937.2313960298748,1656.9887889617507C1916.418123365787,2097.497519856064,1863.7205226428973,2559.9139982616125,1860.8486233045849,3003.7492001013206C1857.9767239662724,3447.584401941029,1910.1414372174308,4100.624866683554,1920,4320L 3840 4320 L 3840 -2160 Z" fill="url(&quot;#SvgjsLinearGradient2258&quot;)"></path><path d="M2240,-2160C2248.1252483265107,-1930.466638392015,2282.9734956757193,-1221.2460469526764,2288.7514899590647,-782.7998303520906C2294.52948424241,-344.35361375150484,2271.687884972424,63.64316664737186,2274.6679657000723,470.67729960351437C2277.6480464277206,877.7114325596569,2316.261104663803,1236.4994759913102,2306.631974324955,1659.4049673847646C2297.002843986107,2082.310458778219,2227.998512721142,2564.6777425283685,2216.893183666983,3008.110247964241C2205.787854612824,3451.5427534001133,2236.148863944497,4101.35170799404,2240,4320L 3840 4320 L 3840 -2160 Z" fill="url(&quot;#SvgjsLinearGradient2259&quot;)"></path><path d="M2560,-2160C2575.8267595090038,-1994.1179949537288,2667.8378883380165,-1532.3456742828178,2654.9605570540225,-1164.707969722373C2642.0832257700285,-797.0702651619283,2492.4973246200366,-326.1470234594226,2482.7360122960363,45.826227362668305C2472.974699972036,417.7994781847592,2571.717966484228,705.634732924166,2596.3926831100216,1067.1315352101724C2621.0673997358153,1428.6283374961788,2634.4904398829367,1843.6488510952427,2630.7843120508,2214.807041078707C2627.0781842186634,2585.965231062171,2585.9533014590024,2943.215181957408,2574.155916117202,3294.0806751109567C2562.358530775402,3644.9461682645056,2562.359319352867,4149.013445851826,2560,4320L 3840 4320 L 3840 -2160 Z" fill="url(&quot;#SvgjsLinearGradient2260&quot;)"></path><path d="M2880,-2160C2876.728659062008,-1983.1787434037738,2866.1259353829582,-1445.3777700014255,2860.3719543720467,-1099.0724604226427C2854.6179733611352,-752.76715084386,2846.1307149579616,-441.1196514395551,2845.47611393453,-82.1681425273038C2844.8215129110986,276.7833663849475,2843.573246539545,685.8213733013574,2856.4443482314578,1054.636593050865C2869.3154499233706,1423.4518128003726,2920.2945922246395,1775.3136819804643,2922.7027240860084,2130.7231759697424C2925.1108559473773,2486.1326699590204,2878.010260080672,2822.2140863148243,2870.893139399671,3187.0935569865337C2863.7760187186695,3551.973027658243,2878.4821898999453,4131.182259497756,2880,4320L 3840 4320 L 3840 -2160 Z" fill="url(&quot;#SvgjsLinearGradient2261&quot;)"></path><path d="M3200,-2160C3208.0741711329947,-1992.9341032850405,3253.5051385076695,-1480.5929036102343,3248.4450267979682,-1157.604619710243C3243.384915088267,-834.6163358102517,3186.884717732543,-522.8237249710379,3169.6393297417917,-222.07029660005261C3152.3939417510405,78.6831317709327,3144.477335925227,348.67016123253006,3144.9726988534603,646.9159505156688C3145.4680617816935,945.1617397988075,3148.2447932132877,1274.4646553653827,3172.6115073111914,1567.4044390987797C3196.978221409095,1860.3442228321767,3292.1692449993016,2104.1233074818865,3291.1729834408816,2404.554652916051C3290.1767218824616,2704.9859983502156,3181.829435200817,3050.7516205231072,3166.63393796067,3369.9925117037656C3151.4384407205234,3689.233402884424,3194.4389896601115,4161.665418617295,3200,4320L 3840 4320 L 3840 -2160 Z" fill="url(&quot;#SvgjsLinearGradient2262&quot;)"></path><path d="M3520,-2160C3507.5823280888744,-1977.7608446561974,3439.354217429752,-1425.3262865085262,3445.4939685332474,-1066.5650679371838C3451.6337196367426,-707.8038493658414,3529.9536586456443,-357.6341512345516,3556.838506620972,-7.4326885719454765C3583.7233545963,342.7687740906607,3622.6439673381988,662.7091433102712,3606.8030563852135,1034.6437080384533C3590.962145432228,1406.5782727666353,3486.3174255769372,1857.0804525280284,3461.7930409030596,2224.174699797147C3437.268656229182,2591.2689470662654,3449.9555884924575,2887.904974952688,3459.6567483419476,3237.2091916531635C3469.3579081914377,3586.513408353639,3509.9427913903246,4139.534865275527,3520,4320L 3840 4320 L 3840 -2160 Z" fill="url(&quot;#SvgjsLinearGradient2263&quot;)"></path></g></g><defs><linearGradient x1="0.1" y1="0" x2="0" y2="1" id="SvgjsLinearGradient2252"><stop stop-color="#4d3a19" offset="0"></stop><stop stop-color="#4d3119" offset="0"></stop></linearGradient><linearGradient x1="0.1" y1="0" x2="0" y2="1" id="SvgjsLinearGradient2253"><stop stop-color="#664c21" offset="0"></stop><stop stop-color="#664021" offset="0.08333333333333333"></stop></linearGradient><linearGradient x1="0.1" y1="0" x2="0" y2="1" id="SvgjsLinearGradient2254"><stop stop-color="#7e5f29" offset="0"></stop><stop stop-color="#7e5129" offset="0.16666666666666666"></stop></linearGradient><linearGradient x1="0.1" y1="0" x2="0" y2="1" id="SvgjsLinearGradient2255"><stop stop-color="#977131" offset="0"></stop><stop stop-color="#976031" offset="0.25"></stop></linearGradient><linearGradient x1="0.1" y1="0" x2="0" y2="1" id="SvgjsLinearGradient2256"><stop stop-color="#af8439" offset="0"></stop><stop stop-color="#af7039" offset="0.3333333333333333"></stop></linearGradient><linearGradient x1="0.1" y1="0" x2="0" y2="1" id="SvgjsLinearGradient2257"><stop stop-color="#c39546" offset="0"></stop><stop stop-color="#c38046" offset="0.4166666666666667"></stop></linearGradient><linearGradient x1="0.1" y1="0" x2="0" y2="1" id="SvgjsLinearGradient2258"><stop stop-color="#cba35e" offset="0"></stop><stop stop-color="#cb915e" offset="0.5"></stop></linearGradient><linearGradient x1="0.1" y1="0" x2="0" y2="1" id="SvgjsLinearGradient2259"><stop stop-color="#d3b177" offset="0"></stop><stop stop-color="#d3a277" offset="0.5833333333333334"></stop></linearGradient><linearGradient x1="0.1" y1="0" x2="0" y2="1" id="SvgjsLinearGradient2260"><stop stop-color="#dbbf8f" offset="0"></stop><stop stop-color="#dbb28f" offset="0.6666666666666666"></stop></linearGradient><linearGradient x1="0.1" y1="0" x2="0" y2="1" id="SvgjsLinearGradient2261"><stop stop-color="#e3cda8" offset="0"></stop><stop stop-color="#e3c3a8" offset="0.75"></stop></linearGradient><linearGradient x1="0.1" y1="0" x2="0" y2="1" id="SvgjsLinearGradient2262"><stop stop-color="#ebdbc0" offset="0"></stop><stop stop-color="#ebd4c0" offset="0.8333333333333334"></stop></linearGradient><linearGradient x1="0.1" y1="0" x2="0" y2="1" id="SvgjsLinearGradient2263"><stop stop-color="#f3e9d9" offset="0"></stop><stop stop-color="#f3e5d9" offset="0.9166666666666666"></stop></linearGradient><clipPath id="SvgjsClipPath2264"><rect width="3840" height="2160"></rect></clipPath></defs></svg>