<svg xmlns="http://www.w3.org/2000/svg" version="1.1" xmlns:xlink="http://www.w3.org/1999/xlink" xmlns:svgjs="http://svgjs.dev/svgjs" style="overflow: hidden; height: 85vh;" viewBox="0 0 3840 2160" class="overflow-hidden rounded-md drop-shadow-lg transition duration-300"><rect width="3840" height="2160" fill="#4d3a19"/><g clip-path="url(&quot;#SvgjsClipPath2303&quot;)"><g transform="matrix(0.7842981140718732,0.841056756862046,-0.841056756862046,0.7842981140718732,1316.6592158395665,-1359.1399773828707)"><path d="M0,-2160C7.07993921521016,-2014.321982211836,41.12002742396873,-1567.7124141618744,42.47963529126096,-1285.9318932710157C43.839243158553195,-1004.151372380157,2.692500625709907,-723.556946017872,8.157647203753385,-469.31687465484765C13.622793781796862,-215.07680329182338,61.43499226746831,-6.987666048749048,75.27051475952183,239.50853490712984C89.10603725157534,486.0047358630087,88.094083885372,745.5229437559419,91.1707821560745,1009.6603310804259C94.24748042677699,1273.7977184049098,103.29387426368012,1551.8075184051702,93.73070438373679,1824.3328588540332C84.16753450379346,2096.8581993028965,58.34935490422846,2357.781819584202,33.79176287641448,2644.812373773604C9.234170848600503,2931.8429279630063,-47.98288730374464,3267.3182462860477,-53.614847783147056,3546.516183990447C-59.24680826254947,3825.7141216948467,-8.935807963857842,4191.086030665075,0,4320L 3840 4320 L 3840 -2160 Z" fill="url(&quot;#SvgjsLinearGradient2291&quot;)"/><path d="M320,-2160C315.3073621010917,-1968.0076641461474,285.05840412215315,-1360.266584422902,291.8441726065504,-1008.0459848768842C298.6299410909476,-655.8253853308663,349.7056811702296,-386.92349626094995,360.7146109063835,-46.67640272389322C371.7235406425374,293.57069081316354,366.91037017744156,672.3562260890565,357.8977510234737,1033.4365763454562C348.8851318695058,1394.5169266018559,319.0687360503302,1748.0392455617825,306.6388959825762,2119.805698814505C294.20905591482216,2491.5721520672273,281.0918599473789,2897.3362456642085,283.31871061694955,3264.035295861791C285.5455612865202,3630.7343460593734,313.8864517694916,4144.005882643632,320,4320L 3840 4320 L 3840 -2160 Z" fill="url(&quot;#SvgjsLinearGradient2292&quot;)"/><path d="M640,-2160C643.1180378073817,-1956.275415789277,645.196697983914,-1378.2156834597413,658.7082268442902,-937.6524947356619C672.2197557046663,-497.0893060115826,717.6401284389933,51.976298036661206,721.0691731622568,483.3791323444758C724.4982178855203,914.7819666522904,702.3988963755961,1235.3268408267124,679.2824951838707,1650.7645111112256C656.1660939921452,2066.202181395739,588.9178485425492,2531.132572570092,582.3707660119042,2976.0051540515547C575.8236834812591,3420.877735533017,630.3951276686507,4096.000859008593,640,4320L 3840 4320 L 3840 -2160 Z" fill="url(&quot;#SvgjsLinearGradient2293&quot;)"/><path d="M960,-2160C949.3444828173989,-1974.1996262491537,905.628762404088,-1392.5253476162318,896.0668969043934,-1045.197757494922C886.5050314046988,-697.870167373612,897.6502647843704,-432.6763451193692,902.6288070018327,-76.0344592721406C907.607349219295,280.60742657508797,926.4364450751997,733.2031177021333,925.9381502091674,1094.6535575884493C925.439855343135,1456.1039974747653,905.5064699884313,1733.905895670276,899.6390378056387,2092.6681800457554C893.7716056228462,2451.430464421235,880.6733967466855,2876.0052938489516,890.7335571124124,3247.2272638413256C900.7937174781393,3618.4492338336995,948.4555928520688,4141.204543973554,960,4320L 3840 4320 L 3840 -2160 Z" fill="url(&quot;#SvgjsLinearGradient2294&quot;)"/><path d="M1280,-2160C1276.9555170122371,-1991.4019278697183,1276.1481987666446,-1524.1561753010903,1261.7331020734227,-1148.4115672183095C1247.318005380201,-772.6669591355287,1206.4538145106342,-277.3131406919482,1193.5094198406694,94.46764849668529C1180.5650251707045,466.2484376853188,1158.4903712869132,732.466172787372,1184.0667340536338,1082.2731679134918C1209.6430968203545,1432.0801630396115,1338.6632682194256,1818.9640961456275,1346.9675964409926,2193.3096192534035C1355.2719246625595,2567.6551423611795,1245.053969456534,2973.897909769048,1233.8927033830353,3328.3463065601472C1222.7314373095364,3682.7947033512464,1272.3154505638392,4154.724384426691,1280,4320L 3840 4320 L 3840 -2160 Z" fill="url(&quot;#SvgjsLinearGradient2295&quot;)"/><path d="M1600,-2160C1605.597356792778,-2007.4843261618385,1642.8380682155132,-1559.8256354301475,1633.5841407566693,-1244.9059569710305C1624.3302132978254,-929.9862785119135,1543.8812930303675,-576.2617705602544,1544.4764352469367,-270.48192924529855C1545.071577463506,35.297912069657286,1626.1065604123419,278.6554192816754,1637.1549940560853,589.7730909187046C1648.2034276998288,900.8907625557338,1605.240478259627,1281.2133270911086,1610.7670371093975,1596.224100576877C1616.293595959168,1911.2348740626453,1656.6432707780568,2174.321703270054,1670.314347154708,2479.8377318333146C1683.9854235313592,2785.353760396575,1704.5125532284223,3122.6265605953245,1692.7934953693043,3429.320271956439C1681.0744375101863,3736.013983317553,1615.4655825615507,4171.553378659406,1600,4320L 3840 4320 L 3840 -2160 Z" fill="url(&quot;#SvgjsLinearGradient2296&quot;)"/><path d="M1920,-2160C1929.5100559648504,-1985.0092732836529,1974.446492542412,-1475.796370664644,1977.0603357891016,-1110.0556397019172C1979.6741790357912,-744.3149087391905,1945.8438212788008,-316.5995886443146,1935.6830594801377,34.444385776360065C1925.5222976814746,385.4883601970347,1917.5782677861368,649.5868363765421,1916.0957649971226,996.2082068221305C1914.6132622081084,1342.8295772677188,1940.0622868482956,1754.690461064463,1926.788042746052,2114.17260844989C1913.5137986438085,2473.654755835317,1837.5816408413361,2785.4631925430067,1836.4503003836608,3153.1010911346916C1835.3189599259854,3520.7389897263765,1906.0750500639435,4125.5168485224485,1920,4320L 3840 4320 L 3840 -2160 Z" fill="url(&quot;#SvgjsLinearGradient2297&quot;)"/><path d="M2240,-2160C2237.553569595143,-1944.3709399684742,2221.8367725627113,-1286.5685533740302,2225.3214175708567,-866.2256398108447C2228.806062579002,-445.8827262476592,2272.2308870231627,-58.06844453331121,2260.9078700488712,362.0574813791125C2249.5848530745798,782.1834072915362,2171.809102982091,1197.449018444967,2157.3833157251074,1654.5299156636975C2142.9575284681237,2111.610812882428,2160.58369912782,2660.2978506354457,2174.353146506969,3104.542864691496C2188.122593886118,3548.7878787475465,2229.0588577511617,4117.4238107819165,2240,4320L 3840 4320 L 3840 -2160 Z" fill="url(&quot;#SvgjsLinearGradient2298&quot;)"/><path d="M2560,-2160C2551.638986694906,-1982.2575205026064,2525.634040649621,-1438.8900563611116,2509.8339201694366,-1093.545123015638C2494.033799689252,-748.2001896701643,2446.386738358903,-451.19144611845456,2465.199277118894,-87.93039992715835C2484.0118158788846,275.33064626413784,2611.0865584155463,705.9423835172818,2622.7091527293796,1086.0211541321391C2634.331747043213,1466.0999247469965,2538.728497797685,1822.2214984618095,2534.9348430018936,2192.542223761986C2531.141188206102,2562.8629490621624,2595.7696977882806,2953.3692098935285,2599.9472239546317,3307.9455059331976C2604.1247501209828,3662.521801972867,2566.6578706591054,4151.324250988866,2560,4320L 3840 4320 L 3840 -2160 Z" fill="url(&quot;#SvgjsLinearGradient2299&quot;)"/><path d="M2880,-2160C2877.9442461061763,-2015.7738753898404,2864.848508933717,-1604.018826466333,2867.6654766370575,-1294.6432523390424C2870.482444340398,-985.2676782117519,2895.6928519890826,-611.2272410585547,2896.901806220045,-303.7465552362564C2898.110760451007,3.734130586041829,2871.3134680403596,246.27276575084153,2874.9192020228325,550.2408625947471C2878.5249360053053,854.2089594386528,2920.0533625058324,1199.4618452852449,2918.5362101148826,1520.062025827177C2917.0190577239327,1840.662206369109,2875.1687728250513,2162.1348213422466,2865.816287677134,2473.8419458463395C2856.4638025292165,2785.5490703504324,2860.057347173568,3082.611763826125,2862.4212992273788,3390.304772851735C2864.7852512811896,3697.997781877345,2877.0702165378966,4165.050795475289,2880,4320L 3840 4320 L 3840 -2160 Z" fill="url(&quot;#SvgjsLinearGradient2300&quot;)"/><path d="M3200,-2160C3195.84409476691,-2000.363423057591,3188.199353499104,-1500.6906801034518,3175.0645686014614,-1202.1805383455467C3161.929783703819,-903.6703965876416,3102.5653968895963,-658.176786471512,3121.1912906141447,-368.93914945256995C3139.817184338693,-79.70151243362795,3259.2017494767174,228.76444707429891,3286.819930948751,533.2452837681053C3314.4381124207844,837.7261204619117,3307.456424628227,1146.586757039109,3286.9003794463465,1457.9458707102683C3266.344334264466,1769.3049843814276,3180.3022110167058,2071.6364714004862,3163.4836598574675,2401.399965795061C3146.6651086982292,2731.1634601896353,3179.9030158004957,3116.760164710226,3185.989072490918,3436.5268370777158C3192.07512918134,3756.2935094452055,3197.6648454151527,4172.754472846286,3200,4320L 3840 4320 L 3840 -2160 Z" fill="url(&quot;#SvgjsLinearGradient2301&quot;)"/><path d="M3520,-2160C3510.8137726657146,-1955.3451403409163,3466.451606918039,-1364.25938872531,3464.8826359942886,-932.0708420454973C3463.3136650705383,-499.88229536568474,3511.4421477837777,-9.799585773121521,3510.586174457499,433.1312800788754C3509.7302011312204,876.0621459308724,3449.0894858897764,1300.3263990401858,3459.7467960366153,1725.5143530664843C3470.404106183454,2150.702307092783,3564.487834677969,2551.844729747748,3574.5300353385333,2984.259004236667C3584.5722359990973,3416.673278725586,3529.088339223089,4097.376500706111,3520,4320L 3840 4320 L 3840 -2160 Z" fill="url(&quot;#SvgjsLinearGradient2302&quot;)"/></g></g><defs><linearGradient x1="0.1" y1="0" x2="0" y2="1" id="SvgjsLinearGradient2291"><stop stop-color="#4d3a19" offset="0"/><stop stop-color="#4d3119" offset="0"/></linearGradient><linearGradient x1="0.1" y1="0" x2="0" y2="1" id="SvgjsLinearGradient2292"><stop stop-color="#664c21" offset="0"/><stop stop-color="#664021" offset="0.08333333333333333"/></linearGradient><linearGradient x1="0.1" y1="0" x2="0" y2="1" id="SvgjsLinearGradient2293"><stop stop-color="#7e5f29" offset="0"/><stop stop-color="#7e5129" offset="0.16666666666666666"/></linearGradient><linearGradient x1="0.1" y1="0" x2="0" y2="1" id="SvgjsLinearGradient2294"><stop stop-color="#977131" offset="0"/><stop stop-color="#976031" offset="0.25"/></linearGradient><linearGradient x1="0.1" y1="0" x2="0" y2="1" id="SvgjsLinearGradient2295"><stop stop-color="#af8439" offset="0"/><stop stop-color="#af7039" offset="0.3333333333333333"/></linearGradient><linearGradient x1="0.1" y1="0" x2="0" y2="1" id="SvgjsLinearGradient2296"><stop stop-color="#c39546" offset="0"/><stop stop-color="#c38046" offset="0.4166666666666667"/></linearGradient><linearGradient x1="0.1" y1="0" x2="0" y2="1" id="SvgjsLinearGradient2297"><stop stop-color="#cba35e" offset="0"/><stop stop-color="#cb915e" offset="0.5"/></linearGradient><linearGradient x1="0.1" y1="0" x2="0" y2="1" id="SvgjsLinearGradient2298"><stop stop-color="#d3b177" offset="0"/><stop stop-color="#d3a277" offset="0.5833333333333334"/></linearGradient><linearGradient x1="0.1" y1="0" x2="0" y2="1" id="SvgjsLinearGradient2299"><stop stop-color="#dbbf8f" offset="0"/><stop stop-color="#dbb28f" offset="0.6666666666666666"/></linearGradient><linearGradient x1="0.1" y1="0" x2="0" y2="1" id="SvgjsLinearGradient2300"><stop stop-color="#e3cda8" offset="0"/><stop stop-color="#e3c3a8" offset="0.75"/></linearGradient><linearGradient x1="0.1" y1="0" x2="0" y2="1" id="SvgjsLinearGradient2301"><stop stop-color="#ebdbc0" offset="0"/><stop stop-color="#ebd4c0" offset="0.8333333333333334"/></linearGradient><linearGradient x1="0.1" y1="0" x2="0" y2="1" id="SvgjsLinearGradient2302"><stop stop-color="#f3e9d9" offset="0"/><stop stop-color="#f3e5d9" offset="0.9166666666666666"/></linearGradient><clipPath id="SvgjsClipPath2303"><rect width="3840" height="2160"/></clipPath></defs></svg>